<svg xmlns="http://www.w3.org/2000/svg" aria-hidden="true" class="css-1avxi44" viewBox="0 0 48 48"><path d="M25.286 18v3.318l1.987.262a1 1 0 0 1-.26 1.983l-3.343-.44a1.603 1.603 0 0 0-.527 3.16l2.7.546a3.618 3.618 0 0 1-.557 7.161v3.153h-2v-3.344l-1.976-.235a1 1 0 0 1 .237-1.986l3.388.404a1.618 1.618 0 0 0 .512-3.192l-2.7-.546a3.603 3.603 0 0 1 .539-7.131V18h2Z"/><path fill-rule="evenodd" d="M25.414 6a2 2 0 0 0-2.828 0L16 12.586V9a1 1 0 0 0-1-1h-5a1 1 0 0 0-1 1v10.586L3.586 25 5 26.414l4-4V41a2 2 0 0 0 2 2h26a2 2 0 0 0 2-2V22.414l4 4L44.414 25l-5.7-5.7a.846.846 0 0 0-.014-.014L25.414 6ZM37 20.414l-13-13-13 13V41h26V20.414Zm-26-2.828 3.003-3.004A.979.979 0 0 1 14 14.5V10h-3v7.586Z" clip-rule="evenodd"/></svg>