<svg xmlns="http://www.w3.org/2000/svg" aria-hidden="true" class="css-1avxi44" viewBox="0 0 48 48"><path d="M27 9.36V7h-2v2.209a2.823 2.823 0 0 0-.136 5.556l1.89.383a.832.832 0 0 1-.264 1.642l-2.372-.283a1 1 0 0 0-.236 1.986l1.117.133V21h2v-2.234a2.833 2.833 0 0 0 .15-5.579l-1.89-.382a.822.822 0 0 1 .27-1.621l2.34.308a1 1 0 1 0 .262-1.983l-1.132-.149Z"/><path fill-rule="evenodd" d="M26 2c-6.628 0-12 5.373-12 12s5.372 12 12 12c6.627 0 12-5.373 12-12S32.626 2 26 2ZM16 14c0-5.523 4.477-10 10-10 5.522 0 10 4.477 10 10s-4.478 10-10 10c-5.523 0-10-4.477-10-10ZM5 30a2 2 0 0 1 2-2h5a2 2 0 0 1 2 2v.072l1.996-.726a11 11 0 0 1 4.895-.604l12.163 1.263a1 1 0 0 1 .897.995v1.049A4 4 0 0 1 30.575 36l-3.67.58 3.034.563a2 2 0 0 0 .712.003l11.175-1.97a1 1 0 0 1 1.173.985v3.942a4 4 0 0 1-2.882 3.84l-6.304 1.835a23 23 0 0 1-15.368-.895L14 43.007A2 2 0 0 1 12 45H7a2 2 0 0 1-2-2V30Zm9 10.836V32.2l2.68-.975a8.999 8.999 0 0 1 4.004-.493l11.267 1.17v.147a2 2 0 0 1-1.688 1.976l-3.67.579c-2.22.35-2.263 3.531-.053 3.942l3.033.563a4 4 0 0 0 1.425.007L41 37.353v2.75a2 2 0 0 1-1.44 1.92l-6.305 1.834a21 21 0 0 1-14.031-.816l-5.224-2.205ZM12 30H7v13h5V30Z" clip-rule="evenodd"/></svg>