<svg xmlns="http://www.w3.org/2000/svg" aria-hidden="true" class="css-1avxi44" viewBox="0 0 48 48"><path fill-rule="evenodd" d="M3 9a3 3 0 0 1 3-3h36a3 3 0 0 1 3 3v14.5h-2V9a1 1 0 0 0-1-1H6a1 1 0 0 0-1 1v27a1 1 0 0 0 1 1h24.263v2H6a3 3 0 0 1-3-3V9Zm14 4h14v2H17v-2Zm17 5H14v2h20v-2Zm-18 5h15v2H16v-2Zm4 7H9v2h11v-2Zm15.551 8.093-.398 4.301 3.441-1.527a1 1 0 0 1 .812 0l3.441 1.527-.398-4.301A6.969 6.969 0 0 1 39 39c-1.254 0-2.43-.33-3.449-.907Zm-1.866-1.538-.524 5.655c-.14 1.52 1.407 2.632 2.803 2.012L39 42.875l3.036 1.347c1.396.62 2.943-.491 2.803-2.012l-.524-5.654a7 7 0 1 0-10.63 0ZM34 32a5 5 0 1 1 10 0 5 5 0 0 1-10 0Z" clip-rule="evenodd"/></svg>