<svg xmlns="http://www.w3.org/2000/svg" fill="#fff" viewBox="0 0 626.01 95.61"><g fill="current"><path d="M133.26 22.12 89.5 3.48c-10.84-4.62-23.29-4.64-34.14-.06L11.08 22.11a8.467 8.467 0 0 0-5.18 7.82c0 3.42 2.04 6.49 5.19 7.81l8.58 3.61c.31.12.54.43.54.8 0 .22-.08.42-.23.57l.02.02c-2.52 2.49-4.62 5.41-6.1 8.64-.4.87-.75 1.76-1.06 2.67-2.59 1.27-4.39 3.91-4.39 6.99 0 2.59 1.27 4.86 3.21 6.28-.38 5.67-4.6 10.29-10.1 11.26-1.16.2-1.87 1.41-1.44 2.51 1.78 4.49 6.16 7.66 11.29 7.64 6.36-.03 11.74-5.21 12.01-11.56.15-3.62-1.3-6.89-3.68-9.19 2.54-1.29 4.3-3.89 4.3-6.94 0-1.55-.47-2.99-1.24-4.2.15-.38.29-.76.46-1.13 1.57-3.4 4.15-6.3 7.32-8.28.5-.29 1.08-.46 1.71-.46.51 0 1 .12 1.45.32l21.64 9.11c5.39 2.27 11.18 3.4 16.96 3.4 5.83 0 11.66-1.15 17.09-3.46l43.81-18.6a8.472 8.472 0 0 0 5.17-7.8 8.466 8.466 0 0 0-5.15-7.82zM85.41 46.84c-8.26 3.51-17.75 3.52-26.02.04l-11.85-4.99a.673.673 0 0 1-.4-.62c0-.28.17-.52.41-.62v-.02l23.06-9.89c1.99-.85 1.99-3.67-.01-4.52 0 0-3.66-1.55-4.88-2.07-1.88-.8-4-.8-5.88 0-5.6 2.39-19.99 8.56-25.93 11.1-.33.12-.68.2-1.06.2-.4 0-.78-.08-1.12-.22l-10.68-4.5a.918.918 0 0 1-.51-.82c0-.36.23-.69.54-.83l38.29-16.16c8.3-3.5 17.8-3.49 26.09.04l37.92 16.16c.31.13.54.44.54.8 0 .35-.22.65-.53.79L85.41 46.84zM188.52 19.79c-.3-.67-.96-1.1-1.7-1.1h-10.37c-.73 0-1.4.43-1.7 1.1L151 73.1c-.32.71.2 1.5.98 1.5h10.65c.58 0 1.11-.35 1.33-.89l4.59-11.09h25.96l4.59 11.09c.22.54.75.89 1.33.89h10.96c.78 0 1.3-.8.98-1.51l-23.85-53.3zM172.69 52.8l8.87-21.41 8.87 21.41h-17.74zM254.28 33.75c-3.27-1.84-6.91-2.76-10.9-2.76-5.91 0-10.41 1.86-13.5 5.59v-3.66c0-.71-.58-1.29-1.29-1.29h-9.32c-.71 0-1.29.58-1.29 1.29v55.89c0 .71.58 1.29 1.29 1.29h9.88c.71 0 1.29-.58 1.29-1.29V70.73c0-.25.29-.36.47-.18 3.1 3.13 7.25 4.7 12.47 4.7 3.99 0 7.63-.92 10.9-2.76 3.28-1.84 5.84-4.42 7.71-7.75 1.86-3.33 2.8-7.2 2.8-11.62 0-4.42-.93-8.29-2.8-11.62-1.86-3.33-4.43-5.92-7.71-7.75zm-5.19 28.03c-2.05 2.16-4.67 3.24-7.87 3.24-3.19 0-5.82-1.08-7.87-3.24s-3.08-5.04-3.08-8.67c0-3.62 1.03-6.51 3.08-8.67s4.67-3.23 7.87-3.23c3.19 0 5.82 1.08 7.87 3.23 2.05 2.16 3.07 5.05 3.07 8.67.01 3.63-1.02 6.52-3.07 8.67zM307.85 33.75c-3.27-1.84-6.91-2.76-10.9-2.76-5.91 0-10.41 1.86-13.5 5.59v-3.66c0-.71-.58-1.29-1.29-1.29h-9.32c-.71 0-1.29.58-1.29 1.29v55.89c0 .71.58 1.29 1.29 1.29h9.88c.71 0 1.29-.58 1.29-1.29V70.73c0-.25.29-.36.47-.18 3.1 3.13 7.25 4.7 12.47 4.7 3.99 0 7.63-.92 10.9-2.76 3.28-1.84 5.84-4.42 7.71-7.75 1.86-3.33 2.8-7.2 2.8-11.62 0-4.42-.93-8.29-2.8-11.62-1.87-3.33-4.44-5.92-7.71-7.75zm-5.2 28.03c-2.05 2.16-4.67 3.24-7.87 3.24-3.19 0-5.82-1.08-7.87-3.24s-3.08-5.04-3.08-8.67c0-3.62 1.03-6.51 3.08-8.67s4.67-3.23 7.87-3.23c3.19 0 5.82 1.08 7.87 3.23 2.05 2.16 3.07 5.05 3.07 8.67.01 3.63-1.02 6.52-3.07 8.67zM325.01 15.33h12.46V74.6h-12.46zM485.02 33.83c-3.57-1.89-7.62-2.84-12.14-2.84-4.53 0-8.59.95-12.18 2.84s-6.4 4.51-8.43 7.87c-2.02 3.35-3.04 7.16-3.04 11.42s1.01 8.07 3.04 11.42c2.02 3.35 4.83 5.98 8.43 7.87 3.6 1.89 7.65 2.84 12.18 2.84 4.53 0 8.57-.95 12.14-2.84 3.57-1.89 6.36-4.51 8.39-7.87 2.02-3.35 3.03-7.16 3.03-11.42s-1.01-8.07-3.03-11.42c-2.02-3.36-4.82-5.98-8.39-7.87zm-4.27 27.95c-2.05 2.16-4.67 3.24-7.87 3.24-3.19 0-5.83-1.08-7.91-3.24s-3.12-5.04-3.12-8.67c0-3.62 1.04-6.51 3.12-8.67s4.71-3.23 7.91-3.23 5.82 1.08 7.87 3.23c2.05 2.16 3.07 5.05 3.07 8.67.01 3.63-1.02 6.52-3.07 8.67zM521.37 30.99c-3.46 0-6.83.45-10.1 1.36-2.93.81-5.49 1.92-7.68 3.33-.44.28-.57.86-.34 1.32l3.52 6.86c.28.55.96.7 1.47.35 1.35-.91 2.91-1.65 4.69-2.23 2.21-.72 4.46-1.08 6.75-1.08 3.3 0 5.78.73 7.43 2.2 1.43 1.27 2.24 3.01 2.43 5.21.05.57-.44 1.06-1.01 1.06h-8.85c-6.28 0-10.93 1.15-13.94 3.43-3.01 2.29-4.51 5.43-4.51 9.43 0 2.5.64 4.74 1.92 6.71 1.28 1.97 3.13 3.51 5.55 4.63s5.28 1.68 8.59 1.68c6.39 0 10.76-2 13.1-5.99v4.34c0 .56.45 1.01 1.01 1.01h9.65c.56 0 1.01-.45 1.01-1.01V50.08c0-6.39-1.78-11.17-5.35-14.34-3.58-3.16-8.69-4.75-15.34-4.75zm8.22 28.17c0 2.55-1.33 4.9-3.52 6.22-1.65.99-3.54 1.48-5.67 1.48-2.18 0-3.9-.47-5.15-1.4-1.25-.93-1.88-2.2-1.88-3.79 0-3.36 2.56-5.03 7.67-5.03h7.53c.56 0 1.01.45 1.01 1.01v1.51zM560.43 37.3v-4.66c0-.56-.45-1.01-1.01-1.01h-9.89c-.56 0-1.01.45-1.01 1.01V73.6c0 .56.45 1.01 1.01 1.01h10.44c.56 0 1.01-.45 1.01-1.01V54.31c0-3.99 1.01-6.99 3.04-8.99 2.02-2 4.82-3 8.39-3 .48 0 1.41.05 2.8.16v-11.5c-3.3 0-6.22.53-8.75 1.6-2.53 1.07-4.54 2.64-6.03 4.72zM625 15.33h-10.44c-.56 0-1.01.45-1.01 1.01v19.84c-3.09-3.46-7.38-5.19-12.86-5.19-4.05 0-7.71.91-10.98 2.72-3.28 1.81-5.85 4.39-7.71 7.75-1.87 3.35-2.8 7.24-2.8 11.66s.93 8.31 2.8 11.66c1.86 3.36 4.43 5.94 7.71 7.75 3.27 1.81 6.94 2.72 10.98 2.72 5.86 0 10.33-1.86 13.42-5.59v3.94c0 .56.45 1.01 1.01 1.01H625c.56 0 1.01-.45 1.01-1.01V16.34c0-.55-.46-1.01-1.01-1.01zm-14.33 46.45c-2.08 2.16-4.69 3.24-7.83 3.24-3.19 0-5.83-1.08-7.91-3.24s-3.12-5.04-3.12-8.67c0-3.62 1.04-6.51 3.12-8.67s4.71-3.23 7.91-3.23c3.14 0 5.75 1.08 7.83 3.23 2.08 2.16 3.12 5.05 3.12 8.67 0 3.63-1.04 6.52-3.12 8.67zM387.59 29.97h-9.4c-.62 0-1.17.41-1.35 1l-8.42 27.99-11.7-28.12a1.43 1.43 0 0 0-1.32-.88h-10.15c-.77 0-1.29.8-.98 1.5l18.44 41.44-.17.42c-.72 1.61-1.61 3.31-3.1 4.33-2.17 1.49-5.05 1.22-7.39.32-.95-.36-1.82-.83-2.61-1.4-.49-.35-1.18-.16-1.45.37l-3.88 7.55c-.22.43-.12.96.26 1.26 1.36 1.05 3.04 1.89 5.02 2.52 2.31.73 4.64 1.1 7.01 1.1 4.33 0 8.03-1.07 11.1-3.21 2.71-1.89 5.04-5 6.98-9.31.52-1.15.93-2.36 1.3-3.56l12.83-41.96c.21-.67-.3-1.36-1.02-1.36zM434.64 45.89a.502.502 0 0 1-.08-.91c1.89-1.16 3.39-2.66 4.51-4.49 1.31-2.13 1.96-4.57 1.96-7.29 0-2.72-.76-5.46-2.41-7.63-3.47-4.59-9.72-6.89-18.76-6.89H396c-.67 0-1.21.54-1.21 1.21v53.49c0 .67.54 1.21 1.21 1.21h25.45c7.3 0 12.85-1.32 16.65-3.95 3.81-2.64 5.71-6.4 5.71-11.3 0-3.46-.91-6.38-2.72-8.75-1.6-2.09-3.75-3.66-6.45-4.7zM407.6 29.36c0-.58.47-1.04 1.04-1.04h11.77c3.73 0 6.75 3.02 6.75 6.75s-3.02 6.75-6.75 6.75h-11.77c-.58 0-1.04-.47-1.04-1.04V29.36zm16.41 35.45h-14.98c-.79 0-1.42-.64-1.42-1.42V52.43c0-.79.64-1.42 1.42-1.42h14.98a6.901 6.901 0 0 1 0 13.8z"/><path d="m108.34 67.89-3.77-1.67c-1.76-.78-3.79.09-4.49 1.88-1.31 3.36-3.6 6.47-6.75 9.1-5.54 4.62-12.97 7.16-20.93 7.16s-15.39-2.54-20.93-7.16c-3.2-2.66-5.5-5.83-6.81-9.25-.69-1.82-2.74-2.71-4.52-1.92l-3.75 1.66a3.384 3.384 0 0 0-1.78 4.29c1.97 5.26 5.42 10.05 10.16 14 7.44 6.2 17.25 9.61 27.63 9.61 10.39 0 20.2-3.41 27.63-9.61 4.68-3.9 8.09-8.62 10.08-13.8.65-1.66-.12-3.56-1.77-4.29z"/></g></svg>