<svg xmlns="http://www.w3.org/2000/svg" aria-hidden="true" class="css-1avxi44" viewBox="0 0 48 48"><path fill-rule="evenodd" d="M20 1a1 1 0 0 1 1-1h6.5a1 1 0 0 1 1 1v5a1 1 0 0 1-1 1H22v1.565l8.682 8.104A1 1 0 0 1 31 17.4v4.1h-2v-3.665l-8-7.467-8 7.467V38h8.5v2H3a1 1 0 0 1-1-1V27.064a1 1 0 0 1 .588-.912L11 22.354V17.4a1 1 0 0 1 .318-.731L20 8.565V1Zm6.5 4H22V2h4.5v3ZM11 38V24.549l-7 3.16V38h7Zm9.84-14.32a1.84 1.84 0 1 0 0-3.68 1.84 1.84 0 0 0 0 3.68Zm0 2a3.84 3.84 0 1 0 0-7.68 3.84 3.84 0 0 0 0 7.68ZM26 36c0-5.523 4.477-10 10-10s10 4.477 10 10-4.477 10-10 10-10-4.477-10-10Zm10-12c-6.627 0-12 5.373-12 12s5.373 12 12 12 12-5.373 12-12-5.373-12-12-12Zm1 7.36V29h-2v2.208a2.823 2.823 0 0 0-.137 5.557l1.89.382a.832.832 0 0 1-.263 1.642l-2.372-.282a1 1 0 0 0-.236 1.986l1.118.133V43h2v-2.234a2.834 2.834 0 0 0 .15-5.58l-1.89-.381a.822.822 0 0 1 .27-1.621l2.34.308a1 1 0 0 0 .26-1.983l-1.13-.15Z" clip-rule="evenodd"/></svg>